<svg width="50" height="24" viewBox="0 0 50 24" fill="none" xmlns="http://www.w3.org/2000/svg">
<path fill-rule="evenodd" clip-rule="evenodd" d="M16.3818 14H8.76376L7.12676 8H19.3818L16.3818 14ZM21.0828 6.948C20.7158 6.354 20.0798 6 19.3818 6H6.58176L5.96476 3.737C5.84576 3.302 5.45076 3 4.99976 3H2.99976C2.44676 3 1.99976 3.448 1.99976 4C1.99976 4.552 2.44676 5 2.99976 5H4.23576L7.03476 15.263C7.15376 15.698 7.54876 16 7.99976 16H16.9998C17.3788 16 17.7248 15.786 17.8948 15.447L21.1708 8.894C21.4838 8.269 21.4498 7.542 21.0828 6.948ZM7.49996 18C6.67196 18 5.99996 18.671 5.99996 19.5C5.99996 20.329 6.67196 21 7.49996 21C8.32796 21 8.99996 20.329 8.99996 19.5C8.99996 18.671 8.32796 18 7.49996 18ZM16 19.5C16 18.671 16.672 18 17.5 18C18.328 18 19 18.671 19 19.5C19 20.329 18.328 21 17.5 21C16.672 21 16 20.329 16 19.5Z" fill="#4F4F4F"/>
<ellipse cx="40" cy="11.555" rx="10" ry="9.87639" fill="#2DD06E"/>
<path d="M39.9937 15.7739C39.1057 15.7739 38.3817 15.4779 37.8217 14.8859C37.2617 14.2859 36.9817 13.5139 36.9817 12.5699V10.1939C36.9817 9.2499 37.2617 8.4819 37.8217 7.8899C38.3897 7.2899 39.1137 6.9899 39.9937 6.9899C40.8737 6.9899 41.5977 7.2899 42.1657 7.8899C42.7337 8.4899 43.0177 9.2579 43.0177 10.1939V12.5699C43.0177 13.5139 42.7337 14.2859 42.1657 14.8859C41.5977 15.4779 40.8737 15.7739 39.9937 15.7739ZM39.9937 14.7659C40.5857 14.7659 41.0657 14.5699 41.4337 14.1779C41.8017 13.7859 41.9857 13.2499 41.9857 12.5699V10.1939C41.9857 9.5139 41.8017 8.9779 41.4337 8.5859C41.0657 8.1939 40.5857 7.9979 39.9937 7.9979C39.4097 7.9979 38.9337 8.1939 38.5657 8.5859C38.1977 8.9779 38.0137 9.5139 38.0137 10.1939V12.5699C38.0137 13.2499 38.1977 13.7859 38.5657 14.1779C38.9337 14.5699 39.4097 14.7659 39.9937 14.7659Z" fill="white"/>
</svg>
